<svg xmlns="http://www.w3.org/2000/svg" viewBox="0 0 331.96 512"><defs><style>.cls-1{fill:#fff;}</style></defs><title>Asset 85@144x-8</title><g id="Layer_2" data-name="Layer 2"><g id="Layer_1-2" data-name="Layer 1"><path class="cls-1" d="M25,512c-7.41-2.31-14.29-5.41-19.07-11.95A31.61,31.61,0,0,1,0,480.82c0-17.67,0-35.33,0-53,0-54,32.26-94.92,84.81-107.72,8.56-2.08,17.1-4.23,26.06-6.45-.68-1.18-1.2-2.12-1.75-3-7-11.65-14-23.35-21.19-34.89a13,13,0,0,0-5.41-5c-6.56-2.83-11.78-7-14.92-13.38a50.64,50.64,0,0,1-3.51-36,22.41,22.41,0,0,1,6-10.11,10.91,10.91,0,0,0,3.75-9c-.19-13.33-.21-26.67,0-40,.06-3.61-1.19-5.57-4.11-7.62-17.37-12.13-29.4-27.95-32.14-49.54-4.24-33.41,21.24-66.49,54.63-71,4.76-.65,9.64-.42,14.42-.94,1.73-.18,4.07-.89,4.9-2.17C122.49,14.09,137.7,3.83,157.6.61A5.41,5.41,0,0,0,159,0h14c10.23,2.38,20.57,4.83,28.76,11.76a135.23,135.23,0,0,1,17,17.37c2.53,3.08,4.65,4.2,8.56,4.05,35.95-1.37,67.52,28.5,67.49,64.48,0,24.43-12.47,42.61-31.8,56.37-3.58,2.55-4.95,4.95-4.86,9.25.28,13.49,0,27,.23,40.48,0,2.13,1.55,4.31,2.64,6.33,2.39,4.46,6.09,8.57,7.2,13.3a49.86,49.86,0,0,1-3.31,32.68c-3.27,7.15-8.8,11.92-16.13,14.79-1.66.64-3.61,1.95-4.28,3.46A163.29,163.29,0,0,1,222,311.38a17.41,17.41,0,0,0-1.18,2c12.31,3.23,24.35,6.15,36.26,9.55,39.31,11.23,70.64,48.06,73.63,88.76,1.75,23.86,1.19,47.93.95,71.89-.14,13.48-8.28,23-21.13,27.22A24.16,24.16,0,0,0,308,512Zm68.62-17.92c1.73.15,2.85.34,4,.34q101.23,0,202.48,0c10,0,14.19-4.31,14.24-14.43.08-18.5.26-37,0-55.49-.64-38.59-22.23-70.25-57.78-83-15.28-5.47-31.42-8.57-47.25-12.41a10.82,10.82,0,0,0-7.64,1.34c-9.21,6-19,10.39-30,11.55-14.35,1.52-27.43-2.4-39.22-10.41-4.06-2.76-7.61-3.56-12.37-2a154.58,154.58,0,0,1-20.79,5.22c-4.48.82-5.76,2.63-5.74,7.17.17,48.83.11,97.66.11,146.49ZM240.84,192.8V187c0-12.33.09-24.66-.06-37,0-2.9,1.06-4.24,3.5-5.72,5.79-3.53,11.79-7,16.71-11.6,15.8-14.7,20-35,11.81-53.26-8.46-18.83-27.69-31.18-48.36-27.94-10.81,1.69-14.66-1.19-19.32-10.28-9.87-19.21-32.46-27.71-52.44-21.34C137.91,24.63,128.12,34.85,122.43,49c-1.51,3.74-3.28,4-7.05,3.63-7.52-.8-15.37-1.71-22.71-.43C66.18,56.87,49.05,85.27,57,110.94c4.78,15.47,15.48,26.17,29.9,33.11,3.15,1.51,4.38,3.2,4.29,6.73-.25,9.66-.09,19.32-.08,29v13ZM92.6,212.05c.71,37.72,11.61,70.69,38.42,97.25,8,8,17.82,13.33,29.36,14.76,16.8,2.07,30.28-4.9,41.78-16.14,18.21-17.79,28.4-40.06,33.64-64.59,2.16-10.11,2.65-20.58,3.95-31.28ZM75.7,341.77a16.17,16.17,0,0,0-2.21.44C42.9,353.17,19,385.44,18,418.06c-.62,20.3-.28,40.63-.35,60.95,0,11.08,4.16,15.35,15.35,15.41,12.82.07,25.65,0,38.47,0,1.42,0,2.83-.25,4.26-.39Z"/><path class="cls-1" d="M127.76,433A13.24,13.24,0,0,1,141,446.31a13.4,13.4,0,0,1-13.24,13.39A13.71,13.71,0,0,1,114.16,446,13.48,13.48,0,0,1,127.76,433Z"/><path class="cls-1" d="M127.68,379.75a13.28,13.28,0,1,1-.14,26.55,13.28,13.28,0,1,1,.14-26.55Z"/><path class="cls-1" d="M167.59,446.38a13.29,13.29,0,1,1,13.27,13.36A13.43,13.43,0,0,1,167.59,446.38Z"/><path class="cls-1" d="M181,379.73a13.27,13.27,0,1,1-13.35,13.2A13.09,13.09,0,0,1,181,379.73Z"/><path class="cls-1" d="M166,279.51c-6,0-12,.11-18,0-8.93-.2-13-6.13-9.74-14.45,2.41-6.24,7.06-10.44,13.73-10.85a246.25,246.25,0,0,1,27.44-.06c7.82.4,13.91,6.84,14.82,14.5.73,6.17-2.1,10.18-8.31,10.57-6.63.42-13.31.1-20,.1Z"/></g></g></svg>